<svg width="14" height="10" viewBox="0 0 14 10" fill="none" xmlns="http://www.w3.org/2000/svg">
<path d="M7.84128 8.31565C7.76862 8.3854 7.71075 8.46907 7.67113 8.56167C7.63151 8.65426 7.61094 8.75389 7.61066 8.85461C7.61038 8.95533 7.63038 9.05507 7.66949 9.14789C7.70859 9.24071 7.76598 9.3247 7.83825 9.39486C7.91052 9.46501 7.99618 9.51989 8.09011 9.55622C8.18405 9.59255 8.28434 9.60959 8.38501 9.60632C8.48568 9.60305 8.58465 9.57954 8.67603 9.53719C8.76741 9.49483 8.84933 9.43451 8.91689 9.35981L12.8571 5.30091C12.9259 5.23039 12.98 5.14698 13.0164 5.05548C13.0529 4.96398 13.0709 4.86618 13.0694 4.76771C13.0679 4.66923 13.047 4.57201 13.0079 4.48163C12.9688 4.39125 12.9122 4.30948 12.8414 4.24103L8.78249 0.300808C8.71274 0.228148 8.62907 0.170281 8.53647 0.130658C8.44388 0.0910358 8.34425 0.0704705 8.24353 0.0701878C8.14281 0.0699051 8.04307 0.0899109 7.95025 0.129013C7.85743 0.168115 7.77344 0.225513 7.70328 0.29778C7.63313 0.370048 7.57825 0.455705 7.54192 0.549643C7.50559 0.64358 7.48855 0.743872 7.49182 0.844537C7.49509 0.945203 7.5186 1.04418 7.56095 1.13556C7.60331 1.22694 7.66363 1.30886 7.73833 1.37642L10.4984 4.05577L0.809445 4.19952C0.610555 4.20247 0.420982 4.28431 0.282432 4.42703C0.143881 4.56975 0.067703 4.76167 0.0706538 4.96056C0.0736046 5.15945 0.155443 5.34902 0.298166 5.48757C0.44089 5.62612 0.632807 5.7023 0.831697 5.69935L10.5206 5.5556L7.84128 8.31565Z" fill="black"/>
</svg>
