<svg width="5" height="4" viewBox="0 0 5 4" fill="none" xmlns="http://www.w3.org/2000/svg">
<path d="M4.99272 1.95737C4.9854 1.93737 4.8091 1.46026 4.41448 0.978421C4.04895 0.532105 3.42028 0 2.5 0C1.57972 0 0.951045 0.532105 0.58552 0.978421C0.1909 1.46026 0.0146031 1.93737 0.00727539 1.95737C0.00247636 1.97086 0 1.98542 0 2.00013C0 2.01484 0.00247636 2.0294 0.00727539 2.04289C0.0146031 2.06316 0.1909 2.54 0.58552 3.02184C0.951907 3.46921 1.57994 4 2.5 4C3.42006 4 4.04895 3.46816 4.41448 3.02184C4.8091 2.54 4.9854 2.06316 4.99272 2.04289C4.99752 2.0294 5 2.01484 5 2.00013C5 1.98542 4.99752 1.97086 4.99272 1.95737ZM4.28797 2.87842C3.79076 3.48368 3.18881 3.78947 2.49914 3.78947C1.80947 3.78947 1.20838 3.48289 0.710307 2.87842C0.498383 2.62035 0.320154 2.3241 0.181848 2C0.320412 1.67583 0.498934 1.37957 0.711169 1.12158C1.20924 0.517105 1.81033 0.210526 2.5 0.210526C3.18967 0.210526 3.79076 0.517105 4.28883 1.12158C4.50104 1.37959 4.67956 1.67585 4.81815 2C4.67958 2.32417 4.50106 2.62043 4.28883 2.87842H4.28797ZM2.5 0.842105C2.31244 0.842105 2.1291 0.910015 1.97316 1.03725C1.81721 1.16448 1.69566 1.34532 1.62389 1.55689C1.55211 1.76847 1.53334 2.00128 1.56993 2.22589C1.60652 2.4505 1.69683 2.65682 1.82945 2.81876C1.96208 2.98069 2.13105 3.09097 2.315 3.13565C2.49895 3.18032 2.68962 3.15739 2.8629 3.06976C3.03618 2.98212 3.18428 2.83371 3.28848 2.64329C3.39268 2.45288 3.4483 2.22901 3.4483 2C3.44801 1.69301 3.34801 1.3987 3.17023 1.18163C2.99245 0.964558 2.75142 0.842454 2.5 0.842105ZM2.5 2.94737C2.34655 2.94737 2.19654 2.89181 2.06895 2.78771C1.94135 2.68361 1.84191 2.53565 1.78318 2.36254C1.72446 2.18943 1.70909 1.99895 1.73903 1.81518C1.76897 1.63141 1.84286 1.4626 1.95137 1.33011C2.05988 1.19762 2.19813 1.10739 2.34863 1.07083C2.49914 1.03428 2.65514 1.05304 2.79692 1.12475C2.93869 1.19645 3.05986 1.31788 3.14512 1.47367C3.23037 1.62946 3.27588 1.81263 3.27588 2C3.27588 2.25126 3.19413 2.49222 3.04863 2.66989C2.90312 2.84756 2.70578 2.94737 2.5 2.94737Z" fill="black"/>
</svg>
