<svg width="5" height="5" viewBox="0 0 5 5" fill="none" xmlns="http://www.w3.org/2000/svg">
<path d="M3.94737 3.94737C4.08696 3.94737 4.22083 4.00282 4.31953 4.10152C4.41823 4.20023 4.47368 4.3341 4.47368 4.47368C4.47368 4.61327 4.41823 4.74714 4.31953 4.84585C4.22083 4.94455 4.08696 5 3.94737 5C3.80778 5 3.67391 4.94455 3.57521 4.84585C3.4765 4.74714 3.42105 4.61327 3.42105 4.47368C3.42105 4.3341 3.4765 4.20023 3.57521 4.10152C3.67391 4.00282 3.80778 3.94737 3.94737 3.94737ZM3.94737 4.21053C3.87757 4.21053 3.81064 4.23825 3.76129 4.2876C3.71194 4.33696 3.68421 4.40389 3.68421 4.47368C3.68421 4.54348 3.71194 4.61041 3.76129 4.65977C3.81064 4.70912 3.87757 4.73684 3.94737 4.73684C4.01716 4.73684 4.0841 4.70912 4.13345 4.65977C4.1828 4.61041 4.21053 4.54348 4.21053 4.47368C4.21053 4.40389 4.1828 4.33696 4.13345 4.2876C4.0841 4.23825 4.01716 4.21053 3.94737 4.21053ZM1.57895 3.94737C1.71854 3.94737 1.85241 4.00282 1.95111 4.10152C2.04981 4.20023 2.10526 4.3341 2.10526 4.47368C2.10526 4.61327 2.04981 4.74714 1.95111 4.84585C1.85241 4.94455 1.71854 5 1.57895 5C1.43936 5 1.30549 4.94455 1.20679 4.84585C1.10808 4.74714 1.05263 4.61327 1.05263 4.47368C1.05263 4.3341 1.10808 4.20023 1.20679 4.10152C1.30549 4.00282 1.43936 3.94737 1.57895 3.94737ZM1.57895 4.21053C1.50915 4.21053 1.44222 4.23825 1.39287 4.2876C1.34352 4.33696 1.31579 4.40389 1.31579 4.47368C1.31579 4.54348 1.34352 4.61041 1.39287 4.65977C1.44222 4.70912 1.50915 4.73684 1.57895 4.73684C1.64874 4.73684 1.71568 4.70912 1.76503 4.65977C1.81438 4.61041 1.84211 4.54348 1.84211 4.47368C1.84211 4.40389 1.81438 4.33696 1.76503 4.2876C1.71568 4.23825 1.64874 4.21053 1.57895 4.21053ZM4.47368 0.789474H0.860526L1.53158 2.36842H3.68421C3.77105 2.36842 3.84737 2.32632 3.89474 2.26316L4.68421 1.21053C4.71842 1.16579 4.73684 1.11053 4.73684 1.05263C4.73684 0.982838 4.70912 0.915903 4.65977 0.866551C4.61041 0.817199 4.54348 0.789474 4.47368 0.789474ZM3.68421 2.63158H1.54474L1.34211 3.04211L1.31579 3.15789C1.31579 3.22769 1.34352 3.29462 1.39287 3.34398C1.44222 3.39333 1.50915 3.42105 1.57895 3.42105H4.47368V3.68421H1.57895C1.43936 3.68421 1.30549 3.62876 1.20679 3.53006C1.10808 3.43135 1.05263 3.29748 1.05263 3.15789C1.05255 3.0686 1.07519 2.98076 1.11842 2.90263L1.30789 2.51579L0.352632 0.263158H0V0H0.526316L0.75 0.526316H4.47368C4.61327 0.526316 4.74714 0.581767 4.84585 0.68047C4.94455 0.779173 5 0.913044 5 1.05263C5 1.18421 4.95526 1.29474 4.88158 1.38421L4.11579 2.40789C4.02105 2.54211 3.86316 2.63158 3.68421 2.63158Z" fill="black"/>
</svg>
