<svg width="14" height="10" viewBox="0 0 14 10" fill="none" xmlns="http://www.w3.org/2000/svg">
<path d="M5.29886 1.41262C5.37152 1.34287 5.42938 1.2592 5.46901 1.1666C5.50863 1.07401 5.52919 0.974378 5.52948 0.87366C5.52976 0.772942 5.50975 0.673198 5.47065 0.58038C5.43155 0.487562 5.37415 0.40357 5.30188 0.333416C5.22962 0.263261 5.14396 0.208382 5.05002 0.17205C4.95608 0.135719 4.85579 0.11868 4.75513 0.121951C4.65446 0.125221 4.55549 0.148734 4.4641 0.191086C4.37272 0.233438 4.29081 0.293762 4.22325 0.368459L0.283026 4.42736C0.214282 4.49788 0.160141 4.58129 0.123712 4.67279C0.0872825 4.76429 0.0692816 4.86209 0.0707426 4.96057C0.0722036 5.05904 0.0930978 5.15626 0.132226 5.24664C0.171353 5.33702 0.227944 5.41879 0.298751 5.48724L4.35765 9.42746C4.4274 9.50012 4.51107 9.55799 4.60366 9.59761C4.69626 9.63724 4.79589 9.6578 4.89661 9.65808C4.99733 9.65837 5.09707 9.63836 5.18989 9.59926C5.28271 9.56016 5.3667 9.50276 5.43685 9.43049C5.50701 9.35822 5.56189 9.27257 5.59822 9.17863C5.63455 9.08469 5.65159 8.9844 5.64832 8.88373C5.64505 8.78307 5.62153 8.68409 5.57918 8.59271C5.53683 8.50133 5.47651 8.41942 5.40181 8.35185L2.64176 5.6725L12.3307 5.52876C12.5296 5.5258 12.7192 5.44397 12.8577 5.30124C12.9963 5.15852 13.0724 4.9666 13.0695 4.76771C13.0665 4.56882 12.9847 4.37925 12.842 4.2407C12.6992 4.10215 12.5073 4.02597 12.3084 4.02892L2.61951 4.17267L5.29886 1.41262Z" fill="black"/>
</svg>
