<svg width="14" height="10" viewBox="0 0 14 10" fill="none" xmlns="http://www.w3.org/2000/svg">
<path d="M5.29886 1.41274C5.37152 1.34299 5.42938 1.25932 5.46901 1.16673C5.50863 1.07413 5.52919 0.9745 5.52948 0.873782C5.52976 0.773064 5.50975 0.67332 5.47065 0.580502C5.43155 0.487684 5.37415 0.403692 5.30188 0.333538C5.22962 0.263384 5.14396 0.208504 5.05002 0.172172C4.95608 0.135841 4.85579 0.118802 4.75513 0.122073C4.65446 0.125343 4.55549 0.148856 4.4641 0.191208C4.37272 0.23356 4.29081 0.293884 4.22325 0.368581L0.283026 4.42748C0.214282 4.49801 0.160141 4.58141 0.123712 4.67291C0.0872825 4.76442 0.0692816 4.86221 0.0707426 4.96069C0.0722036 5.05916 0.0930978 5.15638 0.132226 5.24676C0.171353 5.33714 0.227944 5.41891 0.298751 5.48736L4.35765 9.42758C4.4274 9.50025 4.51107 9.55811 4.60366 9.59773C4.69626 9.63736 4.79589 9.65792 4.89661 9.65821C4.99733 9.65849 5.09707 9.63848 5.18989 9.59938C5.28271 9.56028 5.3667 9.50288 5.43685 9.43061C5.50701 9.35835 5.56189 9.27269 5.59822 9.17875C5.63455 9.08481 5.65159 8.98452 5.64832 8.88386C5.64505 8.78319 5.62153 8.68421 5.57918 8.59283C5.53683 8.50145 5.47651 8.41954 5.40181 8.35198L2.64176 5.67263L12.3307 5.52888C12.5296 5.52593 12.7192 5.44409 12.8577 5.30136C12.9963 5.15864 13.0724 4.96672 13.0695 4.76783C13.0665 4.56894 12.9847 4.37937 12.842 4.24082C12.6992 4.10227 12.5073 4.02609 12.3084 4.02904L2.61951 4.17279L5.29886 1.41274Z" fill="black"/>
</svg>
