<svg width="14" height="10" viewBox="0 0 14 10" fill="none" xmlns="http://www.w3.org/2000/svg">
<path d="M7.65899 8.37777C7.58278 8.44362 7.52061 8.52415 7.47619 8.61454C7.43178 8.70494 7.40603 8.80336 7.40047 8.90392C7.39492 9.00449 7.40968 9.10514 7.44387 9.19988C7.47806 9.29462 7.53098 9.3815 7.59948 9.45534C7.66798 9.52918 7.75065 9.58847 7.84255 9.62966C7.93446 9.67086 8.03372 9.69313 8.13442 9.69513C8.23512 9.69713 8.33519 9.67883 8.42866 9.64132C8.52214 9.60381 8.6071 9.54785 8.67847 9.47679L12.8257 5.62967C12.8981 5.56284 12.9565 5.48238 12.9977 5.39291C13.0388 5.30344 13.0619 5.20672 13.0656 5.10831C13.0693 5.00989 13.0535 4.91171 13.0192 4.8194C12.9848 4.7271 12.9326 4.64249 12.8655 4.57042L9.01837 0.423171C8.95252 0.34696 8.87199 0.284794 8.7816 0.240379C8.6912 0.195965 8.59278 0.170213 8.49222 0.16466C8.39165 0.159106 8.291 0.173865 8.19626 0.208056C8.10152 0.242246 8.01464 0.295169 7.9408 0.363666C7.86696 0.432163 7.80767 0.514831 7.76648 0.606738C7.72528 0.698646 7.70301 0.797908 7.70101 0.898607C7.69901 0.999305 7.71731 1.09938 7.75482 1.19285C7.79233 1.28632 7.84829 1.37128 7.91935 1.44266L10.5354 4.26279L0.85221 3.89926C0.653438 3.8918 0.459841 3.9636 0.314011 4.09888C0.168182 4.23416 0.0820634 4.42182 0.074601 4.62059C0.0671387 4.81937 0.138943 5.01296 0.27422 5.15879C0.409497 5.30462 0.597164 5.39074 0.795936 5.3982L10.4791 5.76173L7.65899 8.37777Z" fill="black"/>
</svg>
