<svg width="5" height="5" viewBox="0 0 5 5" fill="none" xmlns="http://www.w3.org/2000/svg">
<path d="M3.65741 0C3.16111 0 2.73333 0.276902 2.5 0.735598C2.26667 0.276902 1.83889 0 1.34259 0C0.986646 0.00050339 0.645402 0.166717 0.39371 0.462181C0.142018 0.757645 0.000428814 1.15824 0 1.57609C0 2.35299 0.416667 3.16494 1.23611 3.98886C1.61447 4.36682 2.023 4.70107 2.45602 4.98696C2.46953 4.99552 2.48464 5 2.5 5C2.51536 5 2.53047 4.99552 2.54398 4.98696C2.977 4.70107 3.38553 4.36682 3.76389 3.98886C4.58333 3.16494 5 2.35299 5 1.57609C4.99957 1.15824 4.85798 0.757645 4.60629 0.462181C4.3546 0.166717 4.01335 0.00050339 3.65741 0ZM2.5 4.76685C2.17593 4.55054 0.185185 3.15408 0.185185 1.57609C0.185553 1.21587 0.307612 0.870532 0.524588 0.61582C0.741564 0.361109 1.03574 0.217823 1.34259 0.217391C1.83125 0.217391 2.2419 0.524728 2.41435 1.01929C2.42133 1.03923 2.43319 1.05628 2.44845 1.06828C2.4637 1.08028 2.48164 1.08669 2.5 1.08669C2.51836 1.08669 2.5363 1.08028 2.55155 1.06828C2.5668 1.05628 2.57867 1.03923 2.58565 1.01929C2.7581 0.524728 3.16875 0.217391 3.65741 0.217391C3.96426 0.217823 4.25844 0.361109 4.47541 0.61582C4.69239 0.870532 4.81445 1.21587 4.81481 1.57609C4.81481 3.15217 2.82407 4.55054 2.5 4.76685Z" fill="black"/>
</svg>
