<svg width="19" height="17" viewBox="0 0 19 17" fill="none" xmlns="http://www.w3.org/2000/svg">
<path d="M16.622 9.54998L10.965 15.208C10.5899 15.5829 10.0813 15.7936 9.55098 15.7936C9.02066 15.7936 8.51204 15.5829 8.13698 15.208L2.47998 9.55098C2.01235 9.08743 1.64089 8.53608 1.38691 7.92858C1.13294 7.32108 1.00145 6.6694 1.00001 6.01095C0.99857 5.3525 1.1272 4.70025 1.37851 4.09164C1.62982 3.48304 1.99887 2.93006 2.46447 2.46447C2.93006 1.99887 3.48304 1.62982 4.09164 1.37851C4.70025 1.1272 5.3525 0.99857 6.01095 1.00001C6.6694 1.00145 7.32108 1.13294 7.92858 1.38691C8.53608 1.64089 9.08743 2.01235 9.55098 2.47998C10.4926 1.56185 11.7579 1.05165 13.073 1.05989C14.3881 1.06813 15.647 1.59415 16.577 2.52401C17.507 3.45386 18.0332 4.71268 18.0416 6.02776C18.05 7.34284 17.54 8.60829 16.622 9.54998Z" stroke="black" stroke-linecap="round" stroke-linejoin="round"/>
</svg>
